REM DIRINDEX 1\2,1\3,1\4,1\5\6,1\5\7,1\8
REM DIRNAME folder01,folder02,folder03,folder04,folder05,folder06,folder07,folder08
TITLE ""
FILE "137 【137】Unit8 (1549 scholarship_1560 quote).mp3" MP3
  TRACK 01 AUDIO
    TITLE "0:"
    INDEX 01 00:00:00
  TRACK 02 AUDIO
    TITLE "2:cjc115_5360"
    INDEX 01 00:00:09
  TRACK 03 AUDIO
    TITLE "0:"
    INDEX 01 00:01:36
  TRACK 04 AUDIO
    TITLE "3:cjc115_5361"
    INDEX 01 00:01:44
  TRACK 05 AUDIO
    TITLE "0:"
    INDEX 01 00:03:06
  TRACK 06 AUDIO
    TITLE "4:cjc115_5362"
    INDEX 01 00:03:10
  TRACK 07 AUDIO
    TITLE "0:"
    INDEX 01 00:07:29
  TRACK 08 AUDIO
    TITLE "2:cjc115_5363"
    INDEX 01 00:08:38
  TRACK 09 AUDIO
    TITLE "0:"
    INDEX 01 00:09:65
  TRACK 10 AUDIO
    TITLE "3:cjc115_5364"
    INDEX 01 00:09:73
  TRACK 11 AUDIO
    TITLE "0:"
    INDEX 01 00:11:13
  TRACK 12 AUDIO
    TITLE "4:cjc115_5365"
    INDEX 01 00:11:19
  TRACK 13 AUDIO
    TITLE "0:"
    INDEX 01 00:15:54
  TRACK 14 AUDIO
    TITLE "2:cjc115_5366"
    INDEX 01 00:16:63
  TRACK 15 AUDIO
    TITLE "0:"
    INDEX 01 00:18:27
  TRACK 16 AUDIO
    TITLE "3:cjc115_5367"
    INDEX 01 00:18:33
  TRACK 17 AUDIO
    TITLE "0:"
    INDEX 01 00:19:24
  TRACK 18 AUDIO
    TITLE "4:cjc115_5368"
    INDEX 01 00:19:30
  TRACK 19 AUDIO
    TITLE "0:"
    INDEX 01 00:23:06
  TRACK 20 AUDIO
    TITLE "2:cjc115_5369"
    INDEX 01 00:24:14
  TRACK 21 AUDIO
    TITLE "0:"
    INDEX 01 00:25:52
  TRACK 22 AUDIO
    TITLE "3:cjc115_5370"
    INDEX 01 00:25:56
  TRACK 23 AUDIO
    TITLE "0:"
    INDEX 01 00:27:26
  TRACK 24 AUDIO
    TITLE "4:cjc115_5371"
    INDEX 01 00:27:34
  TRACK 25 AUDIO
    TITLE "0:"
    INDEX 01 00:30:50
  TRACK 26 AUDIO
    TITLE "2:cjc115_5372"
    INDEX 01 00:31:63
  TRACK 27 AUDIO
    TITLE "0:"
    INDEX 01 00:33:13
  TRACK 28 AUDIO
    TITLE "3:cjc115_5373"
    INDEX 01 00:33:22
  TRACK 29 AUDIO
    TITLE "0:"
    INDEX 01 00:34:30
  TRACK 30 AUDIO
    TITLE "4:cjc115_5374"
    INDEX 01 00:34:42
  TRACK 31 AUDIO
    TITLE "0:"
    INDEX 01 00:38:00
  TRACK 32 AUDIO
    TITLE "2:cjc115_5375"
    INDEX 01 00:39:05
  TRACK 33 AUDIO
    TITLE "0:"
    INDEX 01 00:40:19
  TRACK 34 AUDIO
    TITLE "3:cjc115_5376"
    INDEX 01 00:40:28
  TRACK 35 AUDIO
    TITLE "0:"
    INDEX 01 00:44:22
  TRACK 36 AUDIO
    TITLE "4:cjc115_5377"
    INDEX 01 00:44:32
  TRACK 37 AUDIO
    TITLE "0:"
    INDEX 01 00:48:18
  TRACK 38 AUDIO
    TITLE "2:cjc115_5378"
    INDEX 01 00:49:23
  TRACK 39 AUDIO
    TITLE "0:"
    INDEX 01 00:50:46
  TRACK 40 AUDIO
    TITLE "3:cjc115_5379"
    INDEX 01 00:50:50
  TRACK 41 AUDIO
    TITLE "0:"
    INDEX 01 00:53:23
  TRACK 42 AUDIO
    TITLE "4:cjc115_5380"
    INDEX 01 00:53:27
  TRACK 43 AUDIO
    TITLE "0:"
    INDEX 01 00:57:11
  TRACK 44 AUDIO
    TITLE "2:cjc115_5381"
    INDEX 01 00:58:18
  TRACK 45 AUDIO
    TITLE "0:"
    INDEX 01 00:59:43
  TRACK 46 AUDIO
    TITLE "3:cjc115_5382"
    INDEX 01 00:59:53
  TRACK 47 AUDIO
    TITLE "0:"
    INDEX 01 01:00:49
  TRACK 48 AUDIO
    TITLE "4:cjc115_5383"
    INDEX 01 01:00:53
  TRACK 49 AUDIO
    TITLE "0:"
    INDEX 01 01:03:20
  TRACK 50 AUDIO
    TITLE "2:cjc115_5384"
    INDEX 01 01:04:31
  TRACK 51 AUDIO
    TITLE "0:"
    INDEX 01 01:05:46
  TRACK 52 AUDIO
    TITLE "3:cjc115_5385"
    INDEX 01 01:05:52
  TRACK 53 AUDIO
    TITLE "0:"
    INDEX 01 01:06:73
  TRACK 54 AUDIO
    TITLE "4:cjc115_5386"
    INDEX 01 01:07:06
  TRACK 55 AUDIO
    TITLE "0:"
    INDEX 01 01:09:22
  TRACK 56 AUDIO
    TITLE "2:cjc115_5387"
    INDEX 01 01:10:30
  TRACK 57 AUDIO
    TITLE "0:"
    INDEX 01 01:11:27
  TRACK 58 AUDIO
    TITLE "3:cjc115_5388"
    INDEX 01 01:11:31
  TRACK 59 AUDIO
    TITLE "0:"
    INDEX 01 01:13:57
  TRACK 60 AUDIO
    TITLE "4:cjc115_5389"
    INDEX 01 01:13:59
  TRACK 61 AUDIO
    TITLE "0:"
    INDEX 01 01:16:50
  TRACK 62 AUDIO
    TITLE "2:cjc115_5390"
    INDEX 01 01:17:59
  TRACK 63 AUDIO
    TITLE "0:"
    INDEX 01 01:19:03
  TRACK 64 AUDIO
    TITLE "3:cjc115_5391"
    INDEX 01 01:19:13
  TRACK 65 AUDIO
    TITLE "0:"
    INDEX 01 01:21:72
  TRACK 66 AUDIO
    TITLE "4:cjc115_5392"
    INDEX 01 01:22:05
  TRACK 67 AUDIO
    TITLE "0:"
    INDEX 01 01:25:29
  TRACK 68 AUDIO
    TITLE "2:cjc115_5393"
    INDEX 01 01:26:38
  TRACK 69 AUDIO
    TITLE "0:"
    INDEX 01 01:27:38
  TRACK 70 AUDIO
    TITLE "3:cjc115_5394"
    INDEX 01 01:27:46
  TRACK 71 AUDIO
    TITLE "0:"
    INDEX 01 01:28:63
  TRACK 72 AUDIO
    TITLE "4:cjc115_5395"
    INDEX 01 01:28:72
  TRACK 73 AUDIO
    TITLE "0:"
    INDEX 01 01:32:02
